<?xml version="1.0" encoding="UTF-8"?>
<svg id="Layer_2" data-name="Layer 2" xmlns="http://www.w3.org/2000/svg" width="98.4" height="98.4" viewBox="0 0 98.4 98.4">
  <defs>
    <style>
      .cls-1 {
        fill: #231f20;
      }

      .cls-2 {
        fill: #fff200;
      }
    </style>
  </defs>
  <g id="Layer_1-2" data-name="Layer 1">
    <g>
      <rect class="cls-1" x="0" y="0" width="98.4" height="98.4" rx="49.2" ry="49.2"/>
      <path class="cls-2" d="M58.13,29.1c-3.39,0-6.37.55-8.93,1.64-2.56-1.09-5.53-1.64-8.93-1.64h-15.35v40.21h15.35c3.39,0,6.36-.57,8.93-1.7,2.56,1.13,5.54,1.7,8.93,1.7h15.35V29.1h-15.35ZM65.07,62.34h-5.93c-2.51,0-4.62-.5-6.34-1.5-1.52-.89-2.72-2.16-3.59-3.8h0s0,0,0,0c0,0,0,0,0,0h0c-.87,1.65-2.07,2.91-3.59,3.8-1.72,1-3.83,1.5-6.34,1.5h-5.93v-26.28h5.93c2.45,0,4.54.5,6.27,1.49,1.55.89,2.77,2.16,3.66,3.81h0s0,0,0,0c0,0,0,0,0,0h0c.89-1.65,2.11-2.92,3.66-3.81,1.73-.99,3.82-1.49,6.27-1.49h5.93v26.28Z"/>
    </g>
  </g>
</svg>